<svg xmlns="http://www.w3.org/2000/svg" width="14.486" height="11.77" viewBox="0 0 14.486 11.77">
  <g id="twitter_1_" data-name="twitter (1)" transform="translate(0 -48)">
    <g id="Grupo_831" data-name="Grupo 831" transform="translate(0 48)">
      <path id="Trazado_1516" data-name="Trazado 1516" d="M14.486,49.393a6.192,6.192,0,0,1-1.711.469,2.953,2.953,0,0,0,1.306-1.641,5.935,5.935,0,0,1-1.883.719,2.97,2.97,0,0,0-5.137,2.031,3.058,3.058,0,0,0,.069.677,8.406,8.406,0,0,1-6.121-3.106,2.971,2.971,0,0,0,.913,3.969,2.933,2.933,0,0,1-1.342-.366v.033A2.984,2.984,0,0,0,2.959,55.1a2.964,2.964,0,0,1-.779.1,2.626,2.626,0,0,1-.562-.051,3,3,0,0,0,2.775,2.069A5.967,5.967,0,0,1,.711,58.478,5.562,5.562,0,0,1,0,58.438,8.361,8.361,0,0,0,4.556,59.77a8.4,8.4,0,0,0,8.453-8.451c0-.131,0-.258-.011-.384A5.925,5.925,0,0,0,14.486,49.393Z" transform="translate(0 -48)" fill="#fff"/>
    </g>
  </g>
</svg>
