<svg xmlns="http://www.w3.org/2000/svg" width="233.55" height="66.144" viewBox="0 0 233.55 66.144">
  <g id="Grupo_1061" data-name="Grupo 1061" transform="translate(-195.921 -265.579)">
    <g id="Grupo_1057" data-name="Grupo 1057" transform="translate(264.922 268.798)">
      <path id="Trazado_2337" data-name="Trazado 2337" d="M326.4,293.738q0-3.552-1.85-5.229a6.891,6.891,0,0,0-4.811-1.678A14.855,14.855,0,0,0,311.6,289.3l-1.727-2.961a13.235,13.235,0,0,1,2.393-1.283,21.578,21.578,0,0,1,2.688-.913,24.028,24.028,0,0,1,2.739-.568,17.856,17.856,0,0,1,2.541-.2,19.1,19.1,0,0,1,5.575.739,11.8,11.8,0,0,1,4.1,2.122,9.1,9.1,0,0,1,2.542,3.281,10.086,10.086,0,0,1,.864,4.218v16.283H319.491q-6.712,0-9.893-2.023a7.473,7.473,0,0,1,0-12.237q3.183-2.022,9.893-2.023Zm-12.582,8.141q0,4.69,5.674,4.688H326.4v-9.375h-6.908Q313.817,297.192,313.817,301.879Z" transform="translate(-306.416 -275.482)" fill="#fff"/>
      <path id="Trazado_2338" data-name="Trazado 2338" d="M368.476,305.273a20.33,20.33,0,0,1-6.192-.889,13.624,13.624,0,0,1-4.762-2.565,11.308,11.308,0,0,1-3.034-4.046,13.921,13.921,0,0,1,0-10.658,11.319,11.319,0,0,1,3.034-4.046,13.653,13.653,0,0,1,4.762-2.565,20.328,20.328,0,0,1,6.192-.889h6.167v-8.881h6.908v34.539Zm6.167-3.454v-18.75h-6.167a8.857,8.857,0,0,0-3.084.518,5.952,5.952,0,0,0-2.418,1.653,7.937,7.937,0,0,0-1.579,2.912,16.512,16.512,0,0,0,0,8.585,7.944,7.944,0,0,0,1.579,2.911,5.95,5.95,0,0,0,2.418,1.652,8.841,8.841,0,0,0,3.084.518Z" transform="translate(-324.07 -270.734)" fill="#fff"/>
      <path id="Trazado_2339" data-name="Trazado 2339" d="M404.785,284.956h25.657q7.055,0,10.435,2.542t3.38,7.574v15.542H437.35V295.071q0-3.553-1.777-5.107a7.566,7.566,0,0,0-5.131-1.554h-2.467v22.2h-6.909v-22.2h-9.375v22.2h-6.907Z" transform="translate(-343.357 -276.075)" fill="#fff"/>
      <path id="Trazado_2340" data-name="Trazado 2340" d="M494.15,309.626h-6.415q-7.056,0-10.435-2.54t-3.38-7.574V284.956h6.907v14.556q0,3.554,1.776,5.106a7.563,7.563,0,0,0,5.131,1.554h6.415V284.956h6.908V310.12a9.84,9.84,0,0,1-.888,4.218,9.019,9.019,0,0,1-2.64,3.282,12.424,12.424,0,0,1-4.391,2.121,22.864,22.864,0,0,1-6.144.741,20.119,20.119,0,0,1-2.541-.174,20.7,20.7,0,0,1-2.738-.542,19.3,19.3,0,0,1-2.689-.938,14.452,14.452,0,0,1-2.393-1.308l1.974-2.961a14.6,14.6,0,0,0,3.749,1.8,13.5,13.5,0,0,0,4.145.666,8.534,8.534,0,0,0,5.674-1.677q1.973-1.679,1.973-5.231Z" transform="translate(-369.319 -276.075)" fill="#fff"/>
      <path id="Trazado_2341" data-name="Trazado 2341" d="M536.77,283.377a19.494,19.494,0,0,1,6.094.912,13.334,13.334,0,0,1,4.762,2.664,12.073,12.073,0,0,1,3.084,4.343,16.275,16.275,0,0,1,0,11.817,12.113,12.113,0,0,1-3.084,4.317,13.3,13.3,0,0,1-4.762,2.664,20.874,20.874,0,0,1-12.211,0,13.312,13.312,0,0,1-4.737-2.664,12.1,12.1,0,0,1-3.084-4.317,16.275,16.275,0,0,1,0-11.817,12.058,12.058,0,0,1,3.084-4.343,13.349,13.349,0,0,1,4.737-2.664A19.425,19.425,0,0,1,536.77,283.377Zm0,24.423a7.427,7.427,0,0,0,2.961-.592,6.36,6.36,0,0,0,2.417-1.85,9.427,9.427,0,0,0,1.654-3.281,19.662,19.662,0,0,0,0-9.769,9.447,9.447,0,0,0-1.654-3.282,6.361,6.361,0,0,0-2.417-1.85,7.7,7.7,0,0,0-5.921,0,6.36,6.36,0,0,0-2.417,1.85,9.447,9.447,0,0,0-1.653,3.282,19.643,19.643,0,0,0,0,9.769,9.426,9.426,0,0,0,1.653,3.281,6.36,6.36,0,0,0,2.417,1.85A7.426,7.426,0,0,0,536.77,307.8Z" transform="translate(-387.27 -275.482)" fill="#fff"/>
    </g>
    <g id="Grupo_1058" data-name="Grupo 1058" transform="translate(269.045 320.693)">
      <path id="Trazado_2342" data-name="Trazado 2342" d="M316.7,353.837a1.625,1.625,0,0,1,1.838,1.838v4.9a1.625,1.625,0,0,1-1.838,1.838h-3.677v-8.579Zm1.225,1.838a1.083,1.083,0,0,0-1.225-1.226h-3.064V361.8H316.7a1.083,1.083,0,0,0,1.225-1.225Z" transform="translate(-313.019 -353.837)" fill="#fff"/>
      <path id="Trazado_2343" data-name="Trazado 2343" d="M331.731,362.051a1.625,1.625,0,0,1-1.839,1.838h-1.225a1.625,1.625,0,0,1-1.838-1.838V359.6a1.625,1.625,0,0,1,1.838-1.838h1.225a1.625,1.625,0,0,1,1.839,1.838Zm-4.289,0a1.083,1.083,0,0,0,1.225,1.225h1.225a1.083,1.083,0,0,0,1.226-1.225V359.6a1.083,1.083,0,0,0-1.226-1.226h-1.225a1.083,1.083,0,0,0-1.225,1.226Z" transform="translate(-318.205 -355.311)" fill="#fff"/>
      <path id="Trazado_2344" data-name="Trazado 2344" d="M340.085,357.762l.184.613a2.5,2.5,0,0,1,1.838-.613h.613a1.625,1.625,0,0,1,1.838,1.838v4.289h-.613V359.6a1.083,1.083,0,0,0-1.225-1.226h-.613a2.5,2.5,0,0,0-1.838.613v4.9h-.613v-6.128Z" transform="translate(-323.022 -355.311)" fill="#fff"/>
      <path id="Trazado_2345" data-name="Trazado 2345" d="M357.386,353.837v8.579h-.429l-.184-.613a2.5,2.5,0,0,1-1.838.613h-.613a1.625,1.625,0,0,1-1.838-1.838v-2.451a1.625,1.625,0,0,1,1.838-1.838h.613a2.5,2.5,0,0,1,1.838.613v-3.064Zm-2.451,7.966a2.5,2.5,0,0,0,1.838-.613v-3.677a2.5,2.5,0,0,0-1.838-.613h-.613a1.083,1.083,0,0,0-1.226,1.226v2.451a1.083,1.083,0,0,0,1.226,1.225Z" transform="translate(-327.839 -353.837)" fill="#fff"/>
      <path id="Trazado_2346" data-name="Trazado 2346" d="M365.924,361.133v.919a1.083,1.083,0,0,0,1.225,1.225h2.758v.613h-2.758a1.625,1.625,0,0,1-1.838-1.838V359.6a1.625,1.625,0,0,1,1.838-1.838h1.226a1.625,1.625,0,0,1,1.838,1.838v1.532Zm0-.614H369.6V359.6a1.083,1.083,0,0,0-1.225-1.226h-1.226a1.083,1.083,0,0,0-1.225,1.226Z" transform="translate(-332.656 -355.311)" fill="#fff"/>
      <path id="Trazado_2347" data-name="Trazado 2347" d="M386.611,356.288h2.144v.613h-2.144v3.677a1.083,1.083,0,0,0,1.226,1.225h.919v.613h-.919A1.625,1.625,0,0,1,386,360.578V356.9h-.919v-.613H386V354.45l.613-.613Z" transform="translate(-340.08 -353.837)" fill="#fff"/>
      <path id="Trazado_2348" data-name="Trazado 2348" d="M400.417,363.89l-.184-.613a2.5,2.5,0,0,1-1.838.613h-.613a1.626,1.626,0,0,1-1.839-1.838v-4.289h.613v4.289a1.083,1.083,0,0,0,1.226,1.225h.613a2.493,2.493,0,0,0,1.838-.613v-4.9h.613v6.128Z" transform="translate(-344.16 -355.311)" fill="#fff"/>
      <path id="Trazado_2349" data-name="Trazado 2349" d="M416.14,357.762l.184.613a2.5,2.5,0,0,1,1.838-.613h.613a1.625,1.625,0,0,1,1.838,1.838v4.289H420V359.6a1.083,1.083,0,0,0-1.226-1.226h-.613a2.5,2.5,0,0,0-1.838.613v4.9h-.613v-6.128Z" transform="translate(-351.583 -355.311)" fill="#fff"/>
      <path id="Trazado_2350" data-name="Trazado 2350" d="M429.151,361.133v.919a1.083,1.083,0,0,0,1.226,1.225h2.758v.613h-2.758a1.625,1.625,0,0,1-1.838-1.838V359.6a1.624,1.624,0,0,1,1.838-1.838H431.6a1.624,1.624,0,0,1,1.838,1.838v1.532Zm0-.614h3.677V359.6a1.084,1.084,0,0,0-1.226-1.226h-1.226a1.084,1.084,0,0,0-1.226,1.226Z" transform="translate(-356.4 -355.311)" fill="#fff"/>
      <path id="Trazado_2351" data-name="Trazado 2351" d="M441.979,366.341v-.613h1.838a1.625,1.625,0,0,0,1.838-1.838v-.613a2.5,2.5,0,0,1-1.838.613H443.2a1.625,1.625,0,0,1-1.838-1.838V359.6a1.625,1.625,0,0,1,1.838-1.838h.613a2.5,2.5,0,0,1,1.838.613l.184-.613h.43v6.128a2.166,2.166,0,0,1-2.451,2.451Zm1.838-3.064a2.493,2.493,0,0,0,1.838-.613v-3.677a2.493,2.493,0,0,0-1.838-.613H443.2a1.083,1.083,0,0,0-1.225,1.226v2.451a1.083,1.083,0,0,0,1.225,1.225Z" transform="translate(-361.217 -355.311)" fill="#fff"/>
      <path id="Trazado_2352" data-name="Trazado 2352" d="M459.1,362.051a1.625,1.625,0,0,1-1.838,1.838h-1.226a1.625,1.625,0,0,1-1.838-1.838V359.6a1.625,1.625,0,0,1,1.838-1.838h1.226A1.625,1.625,0,0,1,459.1,359.6Zm-4.29,0a1.083,1.083,0,0,0,1.226,1.225h1.226a1.083,1.083,0,0,0,1.225-1.225V359.6a1.083,1.083,0,0,0-1.225-1.226h-1.226a1.084,1.084,0,0,0-1.226,1.226Z" transform="translate(-366.035 -355.311)" fill="#fff"/>
      <path id="Trazado_2353" data-name="Trazado 2353" d="M467.635,362.051a1.083,1.083,0,0,0,1.226,1.225h2.451v.613H468.86a1.625,1.625,0,0,1-1.838-1.838V359.6a1.625,1.625,0,0,1,1.838-1.838h2.451v.613H468.86a1.083,1.083,0,0,0-1.226,1.226Z" transform="translate(-370.852 -355.311)" fill="#fff"/>
      <path id="Trazado_2354" data-name="Trazado 2354" d="M479.481,353.837v1.225h-.613v-1.225Zm0,2.451v6.128h-.613v-6.128Z" transform="translate(-375.3 -353.837)" fill="#fff"/>
      <path id="Trazado_2355" data-name="Trazado 2355" d="M489.729,362.051a1.625,1.625,0,0,1-1.838,1.838h-1.226a1.625,1.625,0,0,1-1.838-1.838V359.6a1.625,1.625,0,0,1,1.838-1.838h1.226a1.625,1.625,0,0,1,1.838,1.838Zm-4.289,0a1.083,1.083,0,0,0,1.225,1.225h1.226a1.083,1.083,0,0,0,1.225-1.225V359.6a1.083,1.083,0,0,0-1.225-1.226h-1.226a1.083,1.083,0,0,0-1.225,1.226Z" transform="translate(-377.538 -355.311)" fill="#fff"/>
      <path id="Trazado_2356" data-name="Trazado 2356" d="M505.207,362.051a1.083,1.083,0,0,0,1.225,1.225h2.451v.613h-2.451a1.625,1.625,0,0,1-1.838-1.838V359.6a1.625,1.625,0,0,1,1.838-1.838h2.451v.613h-2.451a1.083,1.083,0,0,0-1.225,1.226Z" transform="translate(-384.961 -355.311)" fill="#fff"/>
      <path id="Trazado_2357" data-name="Trazado 2357" d="M516.441,363.89v-6.128h.429l.184.613a2.5,2.5,0,0,1,1.839-.613v.613a2.5,2.5,0,0,0-1.839.613v4.9Z" transform="translate(-389.41 -355.311)" fill="#fff"/>
      <path id="Trazado_2358" data-name="Trazado 2358" d="M525.465,361.133v.919a1.083,1.083,0,0,0,1.225,1.225h2.758v.613H526.69a1.625,1.625,0,0,1-1.838-1.838V359.6a1.625,1.625,0,0,1,1.838-1.838h1.226a1.625,1.625,0,0,1,1.839,1.838v1.532Zm0-.614h3.676V359.6a1.083,1.083,0,0,0-1.225-1.226H526.69a1.083,1.083,0,0,0-1.225,1.226Z" transform="translate(-392.569 -355.311)" fill="#fff"/>
      <path id="Trazado_2359" data-name="Trazado 2359" d="M538.293,362.051a1.083,1.083,0,0,0,1.226,1.225h2.452v.613h-2.452a1.625,1.625,0,0,1-1.838-1.838V359.6a1.625,1.625,0,0,1,1.838-1.838h2.452v.613h-2.452a1.084,1.084,0,0,0-1.226,1.226Z" transform="translate(-397.386 -355.311)" fill="#fff"/>
      <path id="Trazado_2360" data-name="Trazado 2360" d="M550.14,361.133v.919a1.083,1.083,0,0,0,1.226,1.225h2.757v.613h-2.757a1.625,1.625,0,0,1-1.838-1.838V359.6a1.625,1.625,0,0,1,1.838-1.838h1.225a1.625,1.625,0,0,1,1.838,1.838v1.532Zm0-.614h3.677V359.6a1.084,1.084,0,0,0-1.226-1.226h-1.225a1.083,1.083,0,0,0-1.226,1.226Z" transform="translate(-401.835 -355.311)" fill="#fff"/>
    </g>
    <path id="Trazado_2361" data-name="Trazado 2361" d="M245.3,287.979l-22.4,22.4-7.344-7.218,15.058-15.181L215.561,272.8l7.344-7.218Z" transform="translate(-7.375)" fill="#ffa400"/>
    <path id="Trazado_2362" data-name="Trazado 2362" d="M255.96,279.554l10.889,10.976-10.7,10.793,7.417,7.181,17.969-17.974-18.153-18.156Z" transform="translate(-22.547 -2.552)" fill="#ffa400"/>
    <g id="Grupo_1059" data-name="Grupo 1059" transform="translate(195.921 272.491)">
      <path id="Trazado_2363" data-name="Trazado 2363" d="M225.543,285.618l-18.05,18.012-8.922-8.846,3.358-3.391,5.538,5.335,15.225-15.273a15.486,15.486,0,1,0,2.85,4.164Z" transform="translate(-195.921 -276.648)" fill="#fff"/>
      <path id="Trazado_2364" data-name="Trazado 2364" d="M203.524,294.283l-3.358,3.391,8.922,8.846,18.05-18.012a15.593,15.593,0,0,0-2.85-4.164l-15.225,15.273Z" transform="translate(-197.515 -279.538)" fill="#003764"/>
    </g>
  </g>
</svg>
